<svg width="24" height="24" viewBox="0 0 24 24" fill="none" xmlns="http://www.w3.org/2000/svg">
<path d="M23.7113 8.60903L19.4249 2.32103C19.1152 1.86644 18.6018 1.59503 18.0515 1.59503H5.9482C5.39789 1.59503 4.88442 1.86644 4.57481 2.32089L0.287902 8.60964C-0.147473 9.24991 -0.0830664 10.1067 0.44048 10.673L10.7776 21.8692C11.4354 22.5844 12.566 22.5825 13.221 21.8702L23.5588 10.6734C24.063 10.128 24.1636 9.27419 23.7113 8.60903ZM6.52832 10.3385L10.1913 19.1611L2.04557 10.3385H6.52832ZM13.0136 3.00128L15.881 8.93219H8.11861L10.9859 3.00128H13.0136ZM15.9487 10.3385L11.9998 19.8497L8.05097 10.3384H15.9487V10.3385ZM17.4713 10.3385H21.954L13.8083 19.1611L17.4713 10.3385ZM18.2629 3.11298L22.2297 8.93223H17.443L14.5756 3.00133H18.0515C18.1362 3.00128 18.2152 3.043 18.2629 3.11298ZM5.73684 3.11284C5.78442 3.043 5.8634 3.00133 5.94815 3.00133H9.42403L6.55668 8.93223H1.7699L5.73684 3.11284Z" fill="white"/>
</svg>
