<svg width="24" height="24" viewBox="0 0 24 24" fill="none" xmlns="http://www.w3.org/2000/svg">
<g clip-path="url(#clip0_2_206)">
<path d="M22.0574 6.17962C22.0451 5.53166 22.0333 4.91953 22.0333 4.32734C22.0333 3.86341 21.6573 3.48728 21.1933 3.48728C17.6006 3.48728 14.8653 2.45479 12.5852 0.237924C12.259 -0.0792828 11.74 -0.0791708 11.4139 0.237924C9.13413 2.45479 6.39922 3.48728 2.80678 3.48728C2.34285 3.48728 1.96672 3.86341 1.96672 4.32734C1.96672 4.91964 1.95507 5.53199 1.94264 6.18007C1.8275 12.2101 1.66979 20.4686 11.7244 23.9538C11.8136 23.9847 11.9066 24.0001 11.9995 24.0001C12.0925 24.0001 12.1856 23.9847 12.2746 23.9538C22.33 20.4685 22.1726 12.2098 22.0574 6.17962ZM11.9996 22.2686C3.37646 19.1361 3.50684 12.2739 3.62254 6.21211C3.62949 5.8483 3.63621 5.4957 3.64091 5.15004C7.00564 5.00802 9.6963 3.98841 11.9996 1.98189C14.3032 3.98841 16.9943 5.00813 20.3593 5.15004C20.364 5.49559 20.3707 5.84797 20.3776 6.21155C20.4932 12.2735 20.6235 19.136 11.9996 22.2686Z" fill="white"/>
<path d="M14.8924 9.08181L10.8378 13.1362L9.1076 11.406C8.77952 11.078 8.2476 11.078 7.91964 11.406C7.59157 11.7342 7.59157 12.266 7.91964 12.5941L10.2438 14.9182C10.4078 15.0822 10.6228 15.1642 10.8378 15.1642C11.0527 15.1642 11.2678 15.0822 11.4318 14.9182L16.0802 10.2699C16.4084 9.94181 16.4084 9.40989 16.0803 9.08193C15.7524 8.75385 15.2204 8.75374 14.8924 9.08181Z" fill="white"/>
</g>
<defs>
<clipPath id="clip0_2_206">
<rect width="24" height="24" fill="white"/>
</clipPath>
</defs>
</svg>
